<svg version="1.1" id="Layer_1" xmlns="http://www.w3.org/2000/svg" xmlns:xlink="http://www.w3.org/1999/xlink" x="0" y="0" viewBox="0 0 1192.8 165" xml:space="preserve"><defs><path id="SVGID_1_" d="M0 0h1192.8v165H0z"/></defs><clipPath id="SVGID_2_"><use xlink:href="#SVGID_1_" overflow="visible"/></clipPath><path d="M178.5 54.3c-4.2-5.8-13.4-11.4-25.1-11.4-18 .1-39.3 16.5-39.3 49.1s21.4 49 39.4 49.1c11.7 0 20.8-5.4 25-11.1v9.6h26.7V44.7h-26.7v9.6zm-18.2 62.5c-11.6 0-18.9-9.4-18.9-24.7 0-14.9 7.4-24.7 18.9-24.7 10.9 0 19 10 19 24.7 0 15.2-8.1 24.7-19 24.7m187.6 4V79.4c0-29.1-16.7-36.5-30.7-36.5-14.6 0-22.6 7.7-27 13.8-4.6-8.1-13.1-13.8-24.1-13.8-13.1 0-19.8 6.2-23.5 11.2v-9.4H217v94.9h26.7v-54c0-11.5 5.3-18.5 13.4-18.5 7.4 0 12 5.1 12 15.4v36.2c0 9.6 1.9 16.2 6.5 20.9h27.9c-5.4-4.4-7.7-7.9-7.7-20.8V85.6c0-11.5 5.3-18.5 13.4-18.5 7.4 0 12 5.1 12 15.4v36.2c0 9.6 2.5 16.1 8.1 20.9h28.1c-6.7-4.5-9.5-9.2-9.5-18.8m65.4-77.9c-11.8-.1-20.9 5.6-25.1 11.4V10.7h-26.7v128.9h26.3V130c4.2 5.8 13.6 11.3 25.3 11.1 18-.1 39.5-16.5 39.5-49.1s-21.3-49-39.3-49.1m-6.9 74c-10.9 0-19-9.6-19-24.7 0-14.7 8.1-24.7 19-24.7 11.6 0 18.9 9.8 18.9 24.7 0 15.3-7.3 24.7-18.9 24.7m98.2-74c-24.4 0-45.7 17.7-45.7 49.1 0 28.9 20.6 49.2 47.8 49.2 12.6 0 24.9-3.6 32.5-10.3l2.4-22.7c-8.9 6.5-20.4 9.6-31.9 9.6-12.7 0-21.8-6.2-23.7-15.7h59c.3-2.5.4-5 .4-7.7.1-33.8-19.2-51.5-40.8-51.5m-18.7 39.6c1.3-10.5 8-17.2 16.8-17.2 9.7 0 15.5 7.7 16.2 17.2h-33zm145-25l4.2-12.7h-28.6l-17.8 64.7h-.2l-18.1-64.7h-28.9l31.9 94.8h30zm57.2-46.9H674v25.5c0 3.2-.6 5.4-1.9 6.7-1.3 1.3-3.5 1.9-6.7 1.9H643l-4.3 12.7h34.7v60.5c0 6.4 1.7 11.6 5.1 15.6 3.4 4 8.7 6.1 15.9 6.1h36.9v-12.7h-43.2V57.4h43.2V44.7h-43.2V10.6zm134.4 45.1c-3.7-4.1-8.1-7.3-13.3-9.6-5.2-2.3-11-3.5-17.4-3.5-6.5 0-12.4 1.2-17.7 3.5-5.3 2.3-9.9 5.7-13.7 10-3.8 4.4-6.8 9.6-8.9 15.7-2.1 6.1-3.2 13-3.2 20.6 0 7.5 1 14.2 3.1 20.3 2.1 6.1 5.1 11.3 8.9 15.6 3.9 4.4 8.5 7.7 14 10s11.6 3.5 18.5 3.5c9.4 0 17.4-2.1 24-6.2 6.6-4.1 11.2-9.3 14.1-15.7l-10.8-7.4c-2.5 5.1-6 9.2-10.7 12.1-4.7 2.9-10.2 4.4-16.5 4.4-4.4 0-8.4-.7-12-2.1-3.6-1.4-6.7-3.4-9.2-6-2.5-2.6-4.4-5.6-5.8-9.2-1.3-3.6-2-7.4-2-11.6v-4.4h70.2v-7c0-6.7-1-12.9-2.9-18.6-2.2-5.5-5-10.3-8.7-14.4m-4.4 29.1h-54.4v-1.3c0-4.2.7-8 2.1-11.5 1.4-3.5 3.4-6.5 5.9-9.1 2.5-2.6 5.5-4.6 8.9-6.1 3.4-1.5 7.2-2.2 11.2-2.2 3.9 0 7.5.7 10.8 2 3.2 1.3 6 3.3 8.3 5.8 2.3 2.5 4 5.5 5.3 8.9 1.3 3.4 1.9 7.2 1.9 11.4v2.1zm91.8 39.9c-4.2 2.9-9.4 4.4-15.8 4.4-4.4 0-8.3-.7-11.8-2.1-3.4-1.4-6.3-3.4-8.6-6s-4.1-5.6-5.2-9.2c-1.2-3.6-1.7-7.4-1.7-11.6V84.1c0-4.2.6-8 1.7-11.6 1.2-3.6 2.9-6.6 5.2-9.2 2.3-2.6 5.2-4.6 8.5-6 3.4-1.4 7.2-2.1 11.5-2.1 5.9 0 10.8 1.3 14.8 4s6.8 6.5 8.5 11.4l11.8-6.3c-2.7-6.5-6.9-11.8-12.7-15.8-5.8-4-13.2-6.1-22.4-6.1-6.7 0-12.7 1.2-18 3.5-5.3 2.3-9.7 5.7-13.4 10-3.7 4.4-6.5 9.6-8.5 15.7s-2.9 12.9-2.9 20.4c0 7.5.9 14.3 2.8 20.4 1.9 6.1 4.7 11.3 8.4 15.6 3.7 4.3 8.2 7.6 13.5 10 5.3 2.4 11.4 3.6 18.3 3.6 9.6 0 17.3-2.1 23.3-6.2 5.9-4.2 10.3-9.4 13.1-15.8l-10.5-7.2c-2.4 5.3-5.7 9.3-9.9 12.3m79.9-82.2c-3.9 0-7.4.5-10.3 1.5-2.9 1-5.5 2.3-7.6 3.9-2.1 1.6-4 3.5-5.4 5.6-1.5 2.1-2.7 4.4-3.7 6.7h-.8V10.6h-14.7v129H962V73.8c0-3.1.7-5.8 2-8.1s3.1-4.2 5.3-5.7c2.2-1.5 4.7-2.6 7.5-3.3 2.8-.7 5.7-1.1 8.6-1.1 7.4 0 12.9 2.1 16.7 6.3 3.8 4.2 5.7 10.7 5.7 19.4v58.3h14.7V78.7c0-11.5-3-20.4-9-26.7-5.8-6.3-13.8-9.5-23.7-9.5m40.1 122.5h13.2l64-165h-13.3zm83.9-134.5v15.6L1179 83v1.5l-65.2 36.9v15.3l79-45.8V76.2zM79 30.5v15.6L13.8 83v1.5L79 121.4v15.3L0 90.9V76.2z" clip-path="url(#SVGID_2_)" fill="#2d2a26"/></svg>